<svg
    xmlns="http://www.w3.org/2000/svg"
    fill="none"
    viewBox="0 0 14 14"
    id="Instagram--Streamline-Core.svg"
>
    <desc>Instagram Streamline Icon: https://streamlinehq.com</desc>
    <g id="instagram">
        <path
            id="Subtract"
            fill="#000000"
            fill-rule="evenodd"
            d="M3.08 0.14C1.4563 0.14 0.14 1.4563 0.14 3.08V10.92C0.14 12.5437 1.4563 13.86 3.08 13.86H10.9201C12.5437 13.86 13.86 12.5437 13.86 10.92V3.08C13.86 1.4563 12.5437 0.14 10.9201 0.14H3.08ZM11.7663 3.0843C11.7663 3.552 11.3872 3.9311 10.9195 3.9311C10.4518 3.9311 10.0726 3.552 10.0726 3.0843C10.0726 2.6165 10.4518 2.2374 10.9195 2.2374C11.3872 2.2374 11.7663 2.6165 11.7663 3.0843ZM7.0002 4.6513C5.703 4.6513 4.6515 5.7028 4.6515 6.9999S5.703 9.3486 7.0002 9.3486S9.3488 8.297 9.3488 6.9999S8.2973 4.6513 7.0002 4.6513ZM3.5224 6.9999C3.5224 5.0792 5.0794 3.5221 7.0002 3.5221S10.4779 5.0792 10.4779 6.9999S8.9209 10.4777 7.0002 10.4777S3.5224 8.9206 3.5224 6.9999Z"
            clip-rule="evenodd"
            stroke-width="1"
        ></path>
    </g>
</svg>
